<svg width="43" height="43" viewBox="0 0 43 43" fill="none" xmlns="http://www.w3.org/2000/svg">
<path d="M28.002 22.0124V36.336C28.002 38.3611 26.4144 40.0029 24.4226 40.0029H8.91733C6.92135 40.0029 5.33374 38.3611 5.33374 36.336V14.3344C5.33943 13.3636 5.72759 12.4342 6.41404 11.7478C7.10049 11.0613 8.02989 10.6732 9.00067 10.6675H16.8446C17.1161 10.6679 17.3848 10.7223 17.635 10.8276C17.8853 10.933 18.112 11.087 18.3022 11.2809L27.3986 20.5315C27.7857 20.9273 28.0023 21.4589 28.002 22.0124Z" stroke="white" stroke-width="2.66685" stroke-linejoin="round"/>
<path d="M16.6677 10.6675V19.6681C16.6751 20.2847 16.9233 20.874 17.3593 21.31C17.7954 21.746 18.3846 21.9943 19.0012 22.0016H28.0019" stroke="white" stroke-width="2.66685" stroke-linecap="round" stroke-linejoin="round"/>
<path d="M14.6677 10.6674V6.3338C14.6734 5.36302 15.0616 4.43362 15.748 3.74717C16.4345 3.06072 17.3639 2.67256 18.3347 2.66687H26.1685C26.4415 2.66725 26.7117 2.72164 26.9636 2.82691C27.2155 2.93218 27.4441 3.08625 27.6361 3.28025L36.7326 12.5309C37.1194 12.9224 37.3362 13.4507 37.336 14.001V28.3353C37.336 30.3605 35.7484 32.0023 33.7566 32.0023H28.6687" stroke="white" stroke-width="2.66685" stroke-linejoin="round"/>
<path d="M26.002 2.66687V11.6675C26.0093 12.2841 26.2575 12.8734 26.6936 13.3094C27.1296 13.7454 27.7189 13.9936 28.3355 14.001H37.3361" stroke="white" stroke-width="2.66685" stroke-linecap="round" stroke-linejoin="round"/>
</svg>
