<svg width="44" height="42" viewBox="0 0 44 42" fill="none" xmlns="http://www.w3.org/2000/svg">
<path d="M22 0C9.85089 0 0 9.64687 0 21.5344C0 31.05 6.30536 39.1125 15.0464 41.9625C15.169 41.9879 15.2942 42.0005 15.4196 42C16.2348 42 16.5491 41.4281 16.5491 40.9312C16.5491 40.4156 16.5295 39.0656 16.5196 37.2656C15.7919 37.4285 15.0474 37.5134 14.3 37.5187C10.067 37.5187 9.10446 34.3781 9.10446 34.3781C8.10268 31.8937 6.65893 31.2281 6.65893 31.2281C4.74375 29.9437 6.64911 29.9062 6.79643 29.9062H6.80625C9.01607 30.0937 10.175 32.1375 10.175 32.1375C11.275 33.975 12.7482 34.4906 14.0643 34.4906C14.9345 34.474 15.7913 34.2823 16.5786 33.9281C16.775 32.5406 17.3446 31.5937 17.9732 31.05C13.092 30.5062 7.95536 28.6594 7.95536 20.4094C7.95536 18.0562 8.80982 16.1344 10.2143 14.6344C9.98839 14.0906 9.23214 11.8969 10.4304 8.93437C10.5911 8.89766 10.7563 8.88189 10.9214 8.8875C11.717 8.8875 13.5143 9.17812 16.4804 11.1469C20.0844 10.1844 23.896 10.1844 27.5 11.1469C30.4661 9.17812 32.2634 8.8875 33.0589 8.8875C33.2241 8.88189 33.3893 8.89766 33.55 8.93437C34.7482 11.8969 33.992 14.0906 33.7661 14.6344C35.1705 16.1437 36.025 18.0656 36.025 20.4094C36.025 28.6781 30.8786 30.4969 25.9777 31.0312C26.7634 31.6969 27.4705 33.0094 27.4705 35.0156C27.4705 37.8937 27.4411 40.2187 27.4411 40.9219C27.4411 41.4281 27.7455 42 28.5607 42C28.6927 42.0005 28.8243 41.988 28.9536 41.9625C37.7045 39.1125 44 31.0406 44 21.5344C44 9.64687 34.1491 0 22 0Z" fill="white"/>
</svg>
