<svg width="44" height="44" viewBox="0 0 44 44" fill="none" xmlns="http://www.w3.org/2000/svg">
<path d="M32.353 19.25V35.0625C32.353 35.5139 32.2658 35.9609 32.0965 36.378C31.9271 36.795 31.6789 37.174 31.3659 37.4932C31.053 37.8124 30.6815 38.0656 30.2726 38.2383C29.8637 38.4111 29.4255 38.5 28.9829 38.5H8.76231C7.8685 38.5 7.01131 38.1378 6.37929 37.4932C5.74727 36.8485 5.39221 35.9742 5.39221 35.0625V14.4375C5.39221 13.5258 5.74727 12.6515 6.37929 12.0068C7.01131 11.3622 7.8685 11 8.76231 11H22.8729M28.3089 5.5H37.7452V15.125M18.8726 24.75L37.0711 6.1875" stroke="white" stroke-width="4.0297" stroke-linecap="round" stroke-linejoin="round"/>
</svg>
